<svg version="1.1" id="Layer_1" xmlns="http://www.w3.org/2000/svg" xmlns:xlink="http://www.w3.org/1999/xlink" x="0px" y="0px"
	 width="100%" viewBox="0 0 500 500" enable-background="new 0 0 500 500" xml:space="preserve">
<path fill="#000000" opacity="1.000000" stroke="none" 
	d="
M318.000000,501.000000 
	C212.000031,501.000000 106.500053,501.000000 1.000057,501.000000 
	C1.000038,334.333405 1.000038,167.666794 1.000019,1.000146 
	C167.666565,1.000097 334.333130,1.000097 500.999756,1.000049 
	C500.999847,167.666519 500.999847,334.333038 500.999939,500.999786 
	C440.166656,501.000000 379.333344,501.000000 318.000000,501.000000 
M310.331848,207.563278 
	C305.859192,205.227371 303.275696,206.497589 302.131134,212.573883 
	C300.988312,218.641144 302.296417,225.250046 297.759949,230.495071 
	C297.569489,230.715271 297.560242,231.127686 297.540894,231.454956 
	C297.302490,235.491089 297.077881,239.528046 296.839874,243.739197 
	C306.810638,239.398697 312.433136,232.815598 310.931091,221.697998 
	C310.644714,219.578262 310.755585,217.383911 310.897949,215.238220 
	C310.949951,214.453995 311.626007,213.711166 311.942383,213.835800 
	C312.317719,217.977646 312.560425,222.136765 313.097168,226.257584 
	C314.087860,233.863861 310.644196,238.811890 304.364594,242.681198 
	C295.611664,248.074478 286.314941,251.485672 276.154907,253.246155 
	C263.066498,255.514069 251.607590,252.718689 240.501495,243.957977 
	C246.479294,244.496109 251.576004,245.612228 256.561127,245.238800 
	C262.918488,244.762573 269.423737,243.779129 275.425537,241.727753 
	C281.579620,239.624359 284.374268,233.534363 282.977539,228.156616 
	C282.185272,225.106186 281.112183,223.431381 277.012451,225.048874 
	C272.199310,226.947861 266.795502,228.117249 261.632019,228.174530 
	C254.516373,228.253464 247.350632,227.248428 240.267761,226.265305 
	C208.292252,221.827103 184.001678,237.236389 175.505356,267.556824 
	C175.174881,268.736176 175.141144,269.998688 174.908783,271.651855 
	C185.740860,268.177734 196.244125,265.893066 206.924347,267.830109 
	C218.163483,269.868561 229.322479,272.535248 240.335297,275.582367 
	C251.138092,278.571381 261.733063,281.519745 273.162598,279.393555 
	C295.125275,275.307892 310.642365,262.553741 321.989166,243.969788 
	C322.657043,242.875931 323.360138,241.513138 323.302185,240.311401 
	C322.711365,228.060196 322.117126,215.803757 321.092590,203.584961 
	C320.947327,201.852249 318.498657,200.312683 317.116089,198.683731 
	C315.351196,200.231628 313.388062,201.614624 311.905457,203.397293 
	C311.169189,204.282578 311.315399,205.901825 310.331848,207.563278 
M246.570862,200.036743 
	C249.402969,200.036499 252.240311,199.926132 255.065994,200.060715 
	C259.810791,200.286713 261.737885,197.907303 261.657349,193.403427 
	C261.606750,190.572266 261.613220,187.738785 261.660767,184.907471 
	C261.752228,179.459641 263.089783,178.092621 268.419769,178.013016 
	C271.584351,177.965744 274.750916,177.960266 277.915283,178.014160 
	C281.420380,178.073837 283.201355,176.406357 283.214569,172.908905 
	C283.234741,167.578094 283.229370,162.247147 283.219299,156.916275 
	C283.212555,153.360214 281.274048,151.823929 277.861633,151.835922 
	C274.862976,151.846451 271.862976,151.889999 268.865875,151.819809 
	C263.280518,151.688995 261.749512,150.162247 261.659698,144.696426 
	C261.610474,141.698547 261.722534,138.695984 261.604340,135.701767 
	C261.458038,131.994476 259.795166,129.821320 255.703064,129.932983 
	C250.708984,130.069214 245.707611,130.017914 240.710785,129.948471 
	C236.932281,129.895981 235.204849,131.860229 235.102310,135.427383 
	C235.011398,138.590118 235.112625,141.757904 235.066238,144.922531 
	C234.991501,150.020691 233.363113,151.663574 228.128815,151.815369 
	C224.966110,151.907089 221.798752,151.846863 218.633499,151.838730 
	C215.163300,151.829834 213.296600,153.677887 213.198883,157.011581 
	C213.047653,162.171417 213.069977,167.341003 213.188202,172.502563 
	C213.276489,176.356842 215.360703,178.190384 219.295761,178.029755 
	C222.455765,177.900772 225.626190,178.053665 228.790298,177.992996 
	C233.195663,177.908539 235.197388,180.045517 235.090057,184.409409 
	C235.008148,187.739182 235.056824,191.072937 235.089355,194.404510 
	C235.124741,198.030273 236.944229,199.957367 240.613251,200.021332 
	C242.278717,200.050354 243.944977,200.033035 246.570862,200.036743 
M227.085281,112.653725 
	C168.889435,130.833496 160.449066,198.382706 190.529480,231.255569 
	C191.904007,230.601334 193.323822,229.925552 195.009521,229.123230 
	C194.014404,227.743225 193.262238,226.678970 192.488693,225.630508 
	C167.451797,191.694748 178.132034,143.445969 215.107986,123.454018 
	C262.139252,98.025421 319.256134,132.870041 317.725189,186.186707 
	C317.603363,190.428558 319.056335,192.116089 322.835938,192.851013 
	C325.185181,163.723785 314.977112,140.198044 291.546906,123.292747 
	C272.378387,109.462326 250.695740,106.580818 227.085281,112.653725 
M165.448257,307.860016 
	C163.660461,306.724426 161.872650,305.588806 159.376678,304.003357 
	C159.376678,312.372742 159.376678,319.114349 159.376678,326.109741 
	C161.091339,325.969330 162.488022,325.854950 164.336029,325.703613 
	C164.336029,321.843750 164.336029,318.319366 164.336029,314.907135 
	C169.703079,317.847656 170.537155,325.832031 178.086273,326.132324 
	C178.086273,318.874023 178.086273,312.131683 178.086273,305.053009 
	C176.440872,305.176147 175.060638,305.279449 173.265411,305.413788 
	C173.265411,309.162170 173.265411,312.556427 173.265411,317.217438 
	C170.287582,313.631256 168.117783,311.018158 165.448257,307.860016 
M245.689926,314.539551 
	C245.689926,318.294586 245.689926,322.049652 245.689926,326.093170 
	C247.669296,325.945404 249.064957,325.841217 250.449142,325.737885 
	C250.664612,323.755188 250.840881,322.133301 251.174332,319.065155 
	C253.541138,320.740204 255.156784,321.961700 256.851074,323.062103 
	C258.789124,324.320862 260.797089,325.471985 262.774658,326.669891 
	C263.079956,326.217621 263.385284,325.765350 263.690582,325.313080 
	C262.410767,323.401672 261.130951,321.490265 259.816315,319.526825 
	C263.038513,317.019104 264.985565,314.100159 263.270111,309.996185 
	C261.599426,305.999359 258.075165,305.188690 254.258179,305.087372 
	C251.502930,305.014221 248.744171,305.073090 245.689941,305.073090 
	C245.689941,308.290497 245.689941,310.934967 245.689926,314.539551 
M207.149765,310.471771 
	C202.231140,302.869873 194.672836,305.580688 187.558884,305.064728 
	C187.558884,312.231201 187.558884,318.938080 187.558884,326.031494 
	C190.584198,326.031494 193.371094,326.056183 196.157440,326.027008 
	C205.853836,325.925507 209.897827,320.611145 207.149765,310.471771 
M229.747467,305.181335 
	C221.134567,304.355865 215.840836,307.488312 214.996979,313.909576 
	C214.243683,319.641571 217.532730,324.654602 222.920547,325.986359 
	C229.032944,327.497253 234.907623,324.822418 236.979172,319.585327 
	C239.229965,313.895020 236.893539,308.796906 229.747467,305.181335 
M322.949707,311.587219 
	C322.949707,316.337738 322.949707,321.088287 322.949707,326.019135 
	C326.365387,326.019135 329.174072,326.021851 331.982788,326.017090 
	C332.647675,326.015991 333.315979,326.028076 333.976837,325.968933 
	C339.554504,325.469727 343.470520,321.772430 343.925903,316.594666 
	C344.412811,311.057953 341.200165,306.424408 335.413025,305.538086 
	C331.429169,304.927948 327.276337,305.421051 322.949707,305.421051 
	C322.949707,307.325989 322.949707,308.970795 322.949707,311.587219 
M271.700378,308.891785 
	C271.700378,314.521027 271.700378,320.150238 271.700378,325.834961 
	C277.282379,325.834961 282.408569,325.834961 287.814026,325.834961 
	C287.814026,324.710754 287.939972,322.970306 287.795624,322.947571 
	C284.149689,322.373840 280.475342,321.980469 276.586212,321.529968 
	C276.740723,320.126251 276.880310,318.858063 277.048462,317.330505 
	C280.101410,317.330505 282.900879,317.330505 286.536804,317.330505 
	C285.260254,310.611664 279.753601,315.281311 277.060791,312.632324 
	C277.060791,311.891296 277.060791,310.569916 277.060791,308.890015 
	C280.722382,308.890015 283.993805,308.890015 287.274719,308.890015 
	C287.392517,308.064514 287.695068,307.420013 287.492950,307.140625 
	C284.157440,302.529938 279.395294,306.143372 275.392365,305.139557 
	C273.374695,304.633667 271.243835,304.849457 271.700378,308.891785 
M140.662827,321.981750 
	C140.404495,320.534698 140.146149,319.087646 139.821915,317.271423 
	C143.351700,317.271423 146.147903,317.271423 148.944122,317.271423 
	C149.226990,316.812927 149.509857,316.354431 149.792740,315.895905 
	C148.684860,315.095459 147.665421,313.830780 146.449219,313.599121 
	C144.431229,313.214783 142.286728,313.494568 139.887985,313.494568 
	C140.019073,311.688751 140.107590,310.469360 140.215958,308.976685 
	C143.836838,308.976685 147.117508,308.976685 150.398163,308.976685 
	C150.702484,308.597321 151.006805,308.217957 151.311127,307.838593 
	C150.365112,306.922333 149.466858,305.280945 148.464844,305.214966 
	C144.059982,304.924866 139.625153,305.089813 135.268051,305.089813 
	C135.268051,312.406097 135.268051,319.125366 135.268051,325.784515 
	C140.682251,325.784515 145.780304,325.784515 150.878342,325.784515 
	C151.125412,325.347626 151.372498,324.910736 151.619568,324.473846 
	C150.450531,323.665680 149.368362,322.393219 148.092789,322.154602 
	C146.004105,321.763916 143.789673,322.045471 140.662827,321.981750 
M298.649597,325.131012 
	C300.580353,321.274933 307.871704,320.308472 310.387390,323.324921 
	C311.625031,324.808960 313.669189,325.620361 315.348389,326.736176 
	C315.689209,326.296326 316.030029,325.856506 316.370850,325.416687 
	C313.670319,319.381042 311.059113,313.302277 308.184448,307.350739 
	C307.684143,306.314911 306.088715,305.258789 304.969513,305.226135 
	C303.857361,305.193634 302.148590,306.169800 301.666504,307.169189 
	C298.745880,313.223602 296.101593,319.411377 293.128479,326.085419 
	C295.179047,325.942841 296.638123,325.841431 298.649597,325.131012 
M358.618835,326.022888 
	C360.463348,326.098419 361.857819,326.340210 362.176147,323.457214 
	C362.556580,320.011902 363.920135,316.602142 365.294006,313.361908 
	C366.460663,310.610443 368.247040,308.121765 369.856445,305.349243 
	C362.476776,303.720795 363.520966,311.436554 359.348206,313.523834 
	C358.104156,311.471497 357.140900,309.101074 355.487549,307.402252 
	C354.167297,306.045715 352.006622,305.507080 350.218994,304.605408 
	C349.892731,305.041016 349.566467,305.476593 349.240234,305.912201 
	C353.432373,312.036560 357.643890,318.153137 358.618835,326.022888 
z"/>
<path fill="#FCFCFC" opacity="1.000000" stroke="none" 
	d="
M311.062378,207.189041 
	C311.315399,205.901825 311.169189,204.282578 311.905457,203.397293 
	C313.388062,201.614624 315.351196,200.231628 317.116089,198.683716 
	C318.498657,200.312683 320.947327,201.852249 321.092590,203.584961 
	C322.117126,215.803757 322.711365,228.060196 323.302185,240.311401 
	C323.360138,241.513138 322.657043,242.875931 321.989166,243.969788 
	C310.642365,262.553741 295.125275,275.307892 273.162598,279.393555 
	C261.733063,281.519745 251.138092,278.571381 240.335297,275.582367 
	C229.322479,272.535248 218.163483,269.868561 206.924347,267.830109 
	C196.244125,265.893066 185.740860,268.177734 174.908783,271.651855 
	C175.141144,269.998688 175.174881,268.736176 175.505356,267.556824 
	C184.001678,237.236389 208.292252,221.827103 240.267761,226.265305 
	C247.350632,227.248428 254.516373,228.253464 261.632019,228.174530 
	C266.795502,228.117249 272.199310,226.947861 277.012451,225.048874 
	C281.112183,223.431381 282.185272,225.106186 282.977539,228.156616 
	C284.374268,233.534363 281.579620,239.624359 275.425537,241.727753 
	C269.423737,243.779129 262.918488,244.762573 256.561127,245.238800 
	C251.576004,245.612228 246.479294,244.496109 240.501495,243.957977 
	C251.607590,252.718689 263.066498,255.514069 276.154907,253.246155 
	C286.314941,251.485672 295.611664,248.074478 304.364594,242.681198 
	C310.644196,238.811890 314.087860,233.863861 313.097168,226.257584 
	C312.560425,222.136765 312.317719,217.977646 312.003204,213.019485 
	C311.730133,210.531799 311.396271,208.860413 311.062378,207.189041 
z"/>
<path fill="#FC5656" opacity="1.000000" stroke="none" 
	d="
M246.090881,200.036743 
	C243.944977,200.033035 242.278717,200.050354 240.613251,200.021332 
	C236.944229,199.957367 235.124741,198.030273 235.089355,194.404510 
	C235.056824,191.072937 235.008148,187.739182 235.090057,184.409409 
	C235.197388,180.045517 233.195663,177.908539 228.790298,177.992996 
	C225.626190,178.053665 222.455765,177.900772 219.295761,178.029755 
	C215.360703,178.190384 213.276489,176.356842 213.188202,172.502563 
	C213.069977,167.341003 213.047653,162.171417 213.198883,157.011581 
	C213.296600,153.677887 215.163300,151.829834 218.633499,151.838730 
	C221.798752,151.846863 224.966110,151.907089 228.128815,151.815369 
	C233.363113,151.663574 234.991501,150.020691 235.066238,144.922531 
	C235.112625,141.757904 235.011398,138.590118 235.102310,135.427383 
	C235.204849,131.860229 236.932281,129.895981 240.710785,129.948471 
	C245.707611,130.017914 250.708984,130.069214 255.703064,129.932983 
	C259.795166,129.821320 261.458038,131.994476 261.604340,135.701767 
	C261.722534,138.695984 261.610474,141.698547 261.659698,144.696426 
	C261.749512,150.162247 263.280518,151.688995 268.865875,151.819809 
	C271.862976,151.889999 274.862976,151.846451 277.861633,151.835922 
	C281.274048,151.823929 283.212555,153.360214 283.219299,156.916275 
	C283.229370,162.247147 283.234741,167.578094 283.214569,172.908905 
	C283.201355,176.406357 281.420380,178.073837 277.915283,178.014160 
	C274.750916,177.960266 271.584351,177.965744 268.419769,178.013016 
	C263.089783,178.092621 261.752228,179.459641 261.660767,184.907471 
	C261.613220,187.738785 261.606750,190.572266 261.657349,193.403427 
	C261.737885,197.907303 259.810791,200.286713 255.065994,200.060715 
	C252.240311,199.926132 249.402969,200.036499 246.090881,200.036743 
z"/>
<path fill="#F6F6F6" opacity="1.000000" stroke="none" 
	d="
M227.463104,112.509262 
	C250.695740,106.580818 272.378387,109.462326 291.546906,123.292747 
	C314.977112,140.198044 325.185181,163.723785 322.835938,192.851013 
	C319.056335,192.116089 317.603363,190.428558 317.725189,186.186707 
	C319.256134,132.870041 262.139252,98.025421 215.107986,123.454018 
	C178.132034,143.445969 167.451797,191.694748 192.488693,225.630508 
	C193.262238,226.678970 194.014404,227.743225 195.009521,229.123230 
	C193.323822,229.925552 191.904007,230.601334 190.529480,231.255569 
	C160.449066,198.382706 168.889435,130.833496 227.463104,112.509262 
z"/>
<path fill="#F3F3F3" opacity="1.000000" stroke="none" 
	d="
M310.697113,207.376160 
	C311.396271,208.860413 311.730133,210.531799 312.040710,212.576309 
	C311.626007,213.711166 310.949951,214.453995 310.897949,215.238220 
	C310.755585,217.383911 310.644714,219.578262 310.931091,221.697998 
	C312.433136,232.815598 306.810638,239.398697 296.839874,243.739197 
	C297.077881,239.528046 297.302490,235.491089 297.540894,231.454956 
	C297.560242,231.127686 297.569489,230.715271 297.759949,230.495071 
	C302.296417,225.250046 300.988312,218.641144 302.131134,212.573883 
	C303.275696,206.497589 305.859192,205.227371 310.697113,207.376160 
z"/>
<path fill="#F1F1F1" opacity="1.000000" stroke="none" 
	d="
M165.698120,308.132568 
	C168.117783,311.018158 170.287582,313.631256 173.265411,317.217438 
	C173.265411,312.556427 173.265411,309.162170 173.265411,305.413788 
	C175.060638,305.279449 176.440872,305.176147 178.086273,305.053009 
	C178.086273,312.131683 178.086273,318.874023 178.086273,326.132324 
	C170.537155,325.832031 169.703079,317.847656 164.336029,314.907135 
	C164.336029,318.319366 164.336029,321.843750 164.336029,325.703613 
	C162.488022,325.854950 161.091339,325.969330 159.376678,326.109741 
	C159.376678,319.114349 159.376678,312.372742 159.376678,304.003357 
	C161.872650,305.588806 163.660461,306.724426 165.698120,308.132568 
z"/>
<path fill="#F0F0F0" opacity="1.000000" stroke="none" 
	d="
M245.689941,314.059509 
	C245.689941,310.934967 245.689941,308.290497 245.689941,305.073090 
	C248.744171,305.073090 251.502930,305.014221 254.258179,305.087372 
	C258.075165,305.188690 261.599426,305.999359 263.270111,309.996185 
	C264.985565,314.100159 263.038513,317.019104 259.816315,319.526825 
	C261.130951,321.490265 262.410767,323.401672 263.690582,325.313080 
	C263.385284,325.765350 263.079956,326.217621 262.774658,326.669891 
	C260.797089,325.471985 258.789124,324.320862 256.851074,323.062103 
	C255.156784,321.961700 253.541138,320.740204 251.174332,319.065155 
	C250.840881,322.133301 250.664612,323.755188 250.449142,325.737885 
	C249.064957,325.841217 247.669296,325.945404 245.689926,326.093170 
	C245.689926,322.049652 245.689926,318.294586 245.689941,314.059509 
M252.326981,309.116760 
	C251.593414,311.262787 250.859833,313.408844 249.829193,316.423920 
	C254.025421,315.835236 257.987854,317.670197 258.670166,313.057678 
	C259.207092,309.428101 255.985184,309.143097 252.326981,309.116760 
z"/>
<path fill="#EEEEEE" opacity="1.000000" stroke="none" 
	d="
M207.333160,310.798035 
	C209.897827,320.611145 205.853836,325.925507 196.157440,326.027008 
	C193.371094,326.056183 190.584198,326.031494 187.558884,326.031494 
	C187.558884,318.938080 187.558884,312.231201 187.558884,305.064728 
	C194.672836,305.580688 202.231140,302.869873 207.333160,310.798035 
M202.732437,318.789490 
	C204.224289,310.963959 201.047455,308.122681 192.469269,309.778259 
	C192.469269,313.688690 192.469269,317.627869 192.469269,323.069489 
	C196.137115,321.709503 199.180252,320.581116 202.732437,318.789490 
z"/>
<path fill="#F2F2F2" opacity="1.000000" stroke="none" 
	d="
M230.128967,305.325989 
	C236.893539,308.796906 239.229965,313.895020 236.979172,319.585327 
	C234.907623,324.822418 229.032944,327.497253 222.920547,325.986359 
	C217.532730,324.654602 214.243683,319.641571 214.996979,313.909576 
	C215.840836,307.488312 221.134567,304.355865 230.128967,305.325989 
M222.722336,310.088318 
	C221.901001,312.732666 220.415649,315.405304 220.526505,318.010010 
	C220.585739,319.401459 223.327087,321.637115 224.987488,321.761383 
	C227.098709,321.919464 230.448776,320.897491 231.253937,319.342865 
	C232.322083,317.280487 232.255814,313.817841 231.210114,311.671661 
	C229.787354,308.751648 226.579880,308.243011 222.722336,310.088318 
z"/>
<path fill="#F4F4F4" opacity="1.000000" stroke="none" 
	d="
M322.949707,311.101410 
	C322.949707,308.970795 322.949707,307.325989 322.949707,305.421051 
	C327.276337,305.421051 331.429169,304.927948 335.413025,305.538086 
	C341.200165,306.424408 344.412811,311.057953 343.925903,316.594666 
	C343.470520,321.772430 339.554504,325.469727 333.976837,325.968933 
	C333.315979,326.028076 332.647675,326.015991 331.982788,326.017090 
	C329.174072,326.021851 326.365387,326.019135 322.949707,326.019135 
	C322.949707,321.088287 322.949707,316.337738 322.949707,311.101410 
M327.903412,310.867523 
	C327.903412,314.488373 327.903412,318.109192 327.903412,321.892822 
	C330.128204,321.892822 331.970398,322.156677 333.708191,321.842682 
	C338.650696,320.949554 341.141968,314.567444 337.329651,311.647614 
	C335.102875,309.942139 331.180573,310.450500 327.903412,310.867523 
z"/>
<path fill="#F3F3F3" opacity="1.000000" stroke="none" 
	d="
M271.700684,308.435486 
	C271.243835,304.849457 273.374695,304.633667 275.392365,305.139557 
	C279.395294,306.143372 284.157440,302.529938 287.492950,307.140625 
	C287.695068,307.420013 287.392517,308.064514 287.274719,308.890015 
	C283.993805,308.890015 280.722382,308.890015 277.060791,308.890015 
	C277.060791,310.569916 277.060791,311.891296 277.060791,312.632324 
	C279.753601,315.281311 285.260254,310.611664 286.536804,317.330505 
	C282.900879,317.330505 280.101410,317.330505 277.048462,317.330505 
	C276.880310,318.858063 276.740723,320.126251 276.586212,321.529968 
	C280.475342,321.980469 284.149689,322.373840 287.795624,322.947571 
	C287.939972,322.970306 287.814026,324.710754 287.814026,325.834961 
	C282.408569,325.834961 277.282379,325.834961 271.700378,325.834961 
	C271.700378,320.150238 271.700378,314.521027 271.700684,308.435486 
z"/>
<path fill="#F7F7F7" opacity="1.000000" stroke="none" 
	d="
M141.145538,322.012634 
	C143.789673,322.045471 146.004105,321.763916 148.092789,322.154602 
	C149.368362,322.393219 150.450531,323.665680 151.619568,324.473846 
	C151.372498,324.910736 151.125412,325.347626 150.878342,325.784515 
	C145.780304,325.784515 140.682251,325.784515 135.268051,325.784515 
	C135.268051,319.125366 135.268051,312.406097 135.268051,305.089813 
	C139.625153,305.089813 144.059982,304.924866 148.464844,305.214966 
	C149.466858,305.280945 150.365112,306.922333 151.311127,307.838593 
	C151.006805,308.217957 150.702484,308.597321 150.398163,308.976685 
	C147.117508,308.976685 143.836838,308.976685 140.215958,308.976685 
	C140.107590,310.469360 140.019073,311.688751 139.887985,313.494568 
	C142.286728,313.494568 144.431229,313.214783 146.449219,313.599121 
	C147.665421,313.830780 148.684860,315.095459 149.792740,315.895905 
	C149.509857,316.354431 149.226990,316.812927 148.944122,317.271423 
	C146.147903,317.271423 143.351700,317.271423 139.821915,317.271423 
	C140.146149,319.087646 140.404495,320.534698 141.145538,322.012634 
z"/>
<path fill="#EFEFEF" opacity="1.000000" stroke="none" 
	d="
M298.373413,325.435486 
	C296.638123,325.841431 295.179047,325.942841 293.128479,326.085419 
	C296.101593,319.411377 298.745880,313.223602 301.666504,307.169189 
	C302.148590,306.169800 303.857361,305.193634 304.969513,305.226135 
	C306.088715,305.258789 307.684143,306.314911 308.184448,307.350739 
	C311.059113,313.302277 313.670319,319.381042 316.370850,325.416687 
	C316.030029,325.856506 315.689209,326.296326 315.348389,326.736176 
	C313.669189,325.620361 311.625031,324.808960 310.387390,323.324921 
	C307.871704,320.308472 300.580353,321.274933 298.373413,325.435486 
M306.553833,314.040649 
	C305.989075,313.035339 305.424316,312.030029 304.596436,310.556305 
	C303.470490,313.366821 302.645020,315.427399 301.713074,317.753693 
	C304.098053,317.753693 305.863800,317.753693 307.836151,317.753693 
	C307.469055,316.597656 307.173248,315.665985 306.553833,314.040649 
z"/>
<path fill="#EFEFEF" opacity="1.000000" stroke="none" 
	d="
M358.170898,325.974121 
	C357.643890,318.153137 353.432373,312.036560 349.240234,305.912201 
	C349.566467,305.476593 349.892731,305.041016 350.218994,304.605408 
	C352.006622,305.507080 354.167297,306.045715 355.487549,307.402252 
	C357.140900,309.101074 358.104156,311.471497 359.348206,313.523834 
	C363.520966,311.436554 362.476776,303.720795 369.856445,305.349243 
	C368.247040,308.121765 366.460663,310.610443 365.294006,313.361908 
	C363.920135,316.602142 362.556580,320.011902 362.176147,323.457214 
	C361.857819,326.340210 360.463348,326.098419 358.170898,325.974121 
z"/>
<path fill="#0F0F0F" opacity="1.000000" stroke="none" 
	d="
M252.765335,309.112701 
	C255.985184,309.143097 259.207092,309.428101 258.670166,313.057678 
	C257.987854,317.670197 254.025421,315.835236 249.829193,316.423920 
	C250.859833,313.408844 251.593414,311.262787 252.765335,309.112701 
z"/>
<path fill="#0F0F0F" opacity="1.000000" stroke="none" 
	d="
M202.477921,319.121124 
	C199.180252,320.581116 196.137115,321.709503 192.469269,323.069489 
	C192.469269,317.627869 192.469269,313.688690 192.469269,309.778259 
	C201.047455,308.122681 204.224289,310.963959 202.477921,319.121124 
z"/>
<path fill="#090909" opacity="1.000000" stroke="none" 
	d="
M223.080322,309.916443 
	C226.579880,308.243011 229.787354,308.751648 231.210114,311.671661 
	C232.255814,313.817841 232.322083,317.280487 231.253937,319.342865 
	C230.448776,320.897491 227.098709,321.919464 224.987488,321.761383 
	C223.327087,321.637115 220.585739,319.401459 220.526505,318.010010 
	C220.415649,315.405304 221.901001,312.732666 223.080322,309.916443 
z"/>
<path fill="#080808" opacity="1.000000" stroke="none" 
	d="
M327.962219,310.415222 
	C331.180573,310.450500 335.102875,309.942139 337.329651,311.647614 
	C341.141968,314.567444 338.650696,320.949554 333.708191,321.842682 
	C331.970398,322.156677 330.128204,321.892822 327.903412,321.892822 
	C327.903412,318.109192 327.903412,314.488373 327.962219,310.415222 
z"/>
<path fill="#1C1C1C" opacity="1.000000" stroke="none" 
	d="
M306.715637,314.387512 
	C307.173248,315.665985 307.469055,316.597656 307.836151,317.753693 
	C305.863800,317.753693 304.098053,317.753693 301.713074,317.753693 
	C302.645020,315.427399 303.470490,313.366821 304.596436,310.556305 
	C305.424316,312.030029 305.989075,313.035339 306.715637,314.387512 
z"/>
</svg>